# xmcd CD database file
#
# Track frame offsets:
#	150
#	11626
#	21211
#	26957
#	39725
#	49681
#	59164
#	69762
#	81039
#	91221
#	103425
#	113723
#	124073
#	134726
#	144432
#
# Disc length: 2025 seconds
#
# Revision: 0
# Processed by: cddbd v1.5.2PL0 Copyright (c) Steve Scherf et al.
# Submitted via: CDex 1.70beta2
#
DISCID=d707e70f
DTITLE=Various Artist - Country Legends - Walk the Line
DYEAR=2005
DGENRE=Country
TTITLE0=Before The Next Teardrop Falls - Freddy Fender
TTITLE1=From A Jack To A King - Ned Miller
TTITLE2=The Pill - Loretta Lynn
TTITLE3=Set Me Free - Ed Bruce
TTITLE4=I Miss You So - Mickey Gilley
TTITLE5=The Girl Most Likely - Jeanne C Riley
TTITLE6=Big Train - Conway Twitty
TTITLE7=There She Goes - Jerry Walace
TTITLE8=Release Me - Dolly Parton
TTITLE9=I Walk The Line - Johnny Cash
TTITLE10=Just Call Me Lonesome - Jim Reeves
TTITLE11=I Love You Honey - Patsy Cline
TTITLE12=Good Time Liberator - Kenny Rogers
TTITLE13=Alligator Man - Jimmie C Newman
TTITLE14=Paths of Victory - Anne Murray
EXTD=YEAR: 2005
EXTT0=
EXTT1=
EXTT2=
EXTT3=
EXTT4=
EXTT5=
EXTT6=
EXTT7=
EXTT8=
EXTT9=
EXTT10=
EXTT11=
EXTT12=
EXTT13=
EXTT14=
PLAYORDER=
